<svg width="129" height="16" viewBox="0 0 129 16" fill="none" xmlns="http://www.w3.org/2000/svg">
<path d="M25.6339 12.9559V12.6455H25.553L25.4594 12.8585L25.3662 12.6455H25.285V12.9558H25.3424V12.7219L25.4299 12.9238H25.4895L25.577 12.7214V12.9559H25.6339ZM25.1207 12.9559V12.6984H25.2244V12.6462H24.96V12.6984H25.0638V12.9559H25.1207Z" fill="#F79410"/>
<path d="M16.4383 14.2905H9.43896V1.71152H16.4383V14.2905Z" fill="#D5DFF0"/>
<path d="M9.8874 8.00018C9.8874 5.44847 11.082 3.17555 12.9426 1.7108C11.5343 0.600278 9.79238 -0.00242763 7.99889 0.000253044C3.58106 0.000253044 0 3.58196 0 8.00031C0 12.4187 3.58106 16.0001 7.99889 16.0001C9.79236 16.0028 11.5343 15.4002 12.9426 14.2897C11.082 12.8249 9.8874 10.5519 9.8874 8.00018Z" fill="#7B8EB1"/>
<path d="M25.8779 7.99994C25.8779 12.4183 22.2969 16 17.879 16C16.0854 16.0026 14.3434 15.3999 12.9348 14.2894C14.7958 12.8247 15.9907 10.5516 15.9907 7.99994C15.9907 5.44823 14.7958 3.17531 12.9348 1.71055C14.3434 0.600094 16.0854 -0.00259635 17.879 8.40774e-06C22.2969 8.40774e-06 25.8779 3.58172 25.8779 8.00006" fill="#C0CADC"/>
<path d="M48.4673 13.7474L50.4883 2.37897H53.6462L51.6883 13.7474H48.4673Z" fill="#ADBCD7"/>
<path d="M63.1199 2.50532C62.4884 2.25269 61.4778 2.00006 60.2147 2.00006C57.0568 2.00006 54.7831 3.57901 54.7831 5.85269C54.7831 7.55795 56.362 8.44216 57.6252 9.01059C58.8884 9.57901 59.2673 9.95795 59.2673 10.4632C59.2673 11.2211 58.2568 11.6001 57.3726 11.6001C56.1094 11.6001 55.4147 11.4106 54.341 10.9685L53.8989 10.779L53.4568 13.3685C54.2147 13.6843 55.6042 14.0001 57.0568 14.0001C60.4042 14.0001 62.6147 12.4211 62.6147 10.0211C62.6147 8.6948 61.7936 7.68427 59.8989 6.86322C58.7621 6.2948 58.0673 5.97901 58.0673 5.41059C58.0673 4.90532 58.6357 4.40006 59.8989 4.40006C60.9726 4.40006 61.7305 4.58953 62.2989 4.84217L62.6147 4.96848L63.1199 2.50532Z" fill="#ADBCD7"/>
<path d="M68.5516 2.37897C67.7937 2.37897 67.2252 2.44213 66.9094 3.20002L62.1726 13.7474H65.5831L66.2147 11.8527H70.2568L70.6358 13.7474H73.6673L71.0147 2.37897H68.5516ZM67.0989 9.95791C67.2884 9.38949 68.3621 6.61055 68.3621 6.61055C68.3621 6.61055 68.6147 5.91581 68.8042 5.47371L68.9937 6.54739C68.9937 6.54739 69.6252 9.38949 69.7516 10.0211H67.0989V9.95791Z" fill="#ADBCD7"/>
<path d="M42.6568 10.3369L42.341 8.69477C41.7726 6.80003 39.941 4.71582 37.9199 3.7053L40.762 13.8106H44.1726L49.2883 2.44214H45.8778L42.6568 10.3369Z" fill="#ADBCD7"/>
<path d="M33.8779 2.37897L34.4464 2.50528C38.4885 3.45265 41.2674 5.85265 42.3411 8.69476L41.2042 3.32634C41.0148 2.56844 40.4464 2.37897 39.7516 2.37897H33.8779Z" fill="#93A4C2"/>
<path fill-rule="evenodd" clip-rule="evenodd" d="M89.0817 2.51864C89.4486 2.51644 90.539 2.41824 91.0008 3.977C91.312 5.027 91.8075 6.74695 92.4876 9.13685H92.7645C93.4938 6.61725 93.9948 4.8973 94.2675 3.977C94.7342 2.402 95.9008 2.51867 96.3675 2.51867L99.968 2.51867V13.7186H96.2983V7.11831H96.0522L94.0065 13.7186H91.2456L89.1999 7.11342H88.9539V13.7186H85.2842V2.51867L89.0817 2.51864ZM105.238 2.51867V9.12392H105.53L108.019 3.69247C108.502 2.6116 109.531 2.51867 109.531 2.51867H113.082V13.7187H109.336V7.11342H109.043L106.604 12.5449C106.121 13.6208 105.042 13.7187 105.042 13.7187H101.491V2.51867H105.238ZM126.031 7.84098C125.509 9.32183 123.868 10.3824 122.051 10.3824H118.122V13.7187H114.559V7.84098H126.031Z" fill="#ADBCD7"/>
<path fill-rule="evenodd" clip-rule="evenodd" d="M122.222 2.51868H114.373C114.559 5.01218 116.707 7.14677 118.93 7.14677H126.279C126.703 5.07438 125.243 2.51868 122.222 2.51868Z" fill="#93A4C2"/>
</svg>
